<svg version="1.1" id="Layer_1" xmlns="http://www.w3.org/2000/svg" xmlns:xlink="http://www.w3.org/1999/xlink" x="0px" y="0px"
	 width="100%" viewBox="0 0 512 512" enable-background="new 0 0 512 512" xml:space="preserve">
<path fill="#FF9E5E" opacity="1.000000" stroke="none" 
	d="
M263.000000,1.000000 
	C265.700623,1.000000 268.401276,1.000000 271.830078,1.255149 
	C275.968964,2.066628 279.442169,2.376307 282.779816,3.221388 
	C298.375031,7.170063 314.275299,10.278488 329.427734,15.530293 
	C355.297333,24.496660 378.320709,38.883083 398.609009,57.247738 
	C421.545624,78.009560 439.668152,102.409195 452.453918,130.754578 
	C464.722992,157.954514 470.918060,186.497208 471.838287,216.157730 
	C472.150543,226.222458 470.948975,236.366943 469.986267,246.431656 
	C467.907471,268.164734 461.625305,288.874481 452.559204,308.570862 
	C438.041718,340.110535 417.527863,367.156311 390.447479,389.251953 
	C364.090057,410.757751 334.783142,426.083862 301.694916,433.996857 
	C292.211060,436.264893 282.577271,437.905823 272.581909,439.904175 
	C266.038910,439.115265 259.818726,438.713013 253.835342,437.304596 
	C240.519928,434.170319 227.322998,430.532715 214.110046,426.709717 
	C218.865631,409.815582 220.473572,393.172119 217.112152,376.144226 
	C209.396896,337.061340 186.907623,309.972534 150.668747,294.121979 
	C139.002213,289.019135 126.500847,286.584808 113.864410,286.239105 
	C106.252701,286.030853 98.584282,287.895386 90.516823,288.835114 
	C87.378006,289.180084 84.663719,289.518402 81.965469,289.464111 
	C75.577766,269.816376 72.386780,249.933472 71.138306,229.773361 
	C70.650749,221.900284 71.338951,213.903214 72.078506,206.017654 
	C73.114891,194.967072 73.777245,183.759262 76.214912,172.984161 
	C85.115578,133.640976 103.368645,98.903900 131.167099,69.706596 
	C141.860245,58.475353 153.904694,48.140064 166.686111,39.367302 
	C195.120850,19.850567 226.503235,7.062180 261.061554,2.919565 
	C261.774170,2.834141 262.356750,1.664064 263.000000,1.000000 
M160.678802,234.587128 
	C166.157837,249.468231 179.354324,257.771301 194.536896,255.890228 
	C207.969009,254.226044 219.694122,242.387222 221.018112,229.152191 
	C222.568344,213.655670 214.219788,200.091202 200.108688,195.581421 
	C188.943375,192.013092 178.595734,193.895798 169.819595,201.710556 
	C160.122665,210.345215 157.081314,221.231125 160.678802,234.587128 
M269.472961,203.994492 
	C259.808685,215.408737 258.472321,229.539108 265.932861,241.426605 
	C273.024689,252.726624 286.634857,258.431671 299.155884,255.352844 
	C312.143097,252.159378 321.816193,241.713242 323.052216,229.546722 
	C324.500824,215.288010 318.165283,203.073624 306.270721,197.193588 
	C293.994507,191.124878 280.493530,193.462234 269.472961,203.994492 
M370.067108,244.373886 
	C370.974243,245.348434 371.841431,246.364044 372.794556,247.291306 
	C385.002319,259.167755 404.505219,259.034576 416.442902,247.006592 
	C428.438843,234.919891 428.570404,215.511032 416.738892,203.332306 
	C405.582428,191.848419 387.472961,190.756927 374.957977,200.814056 
	C361.918335,211.292801 359.723572,229.024841 370.067108,244.373886 
z"/>
<path fill="#000000" opacity="1.000000" stroke="none" 
	d="
M214.077774,427.100250 
	C227.322998,430.532715 240.519928,434.170319 253.835342,437.304596 
	C259.818726,438.713013 266.038910,439.115265 273.026062,439.980164 
	C277.322723,440.328522 280.762115,441.080292 284.164124,440.938110 
	C295.349365,440.470764 306.524445,439.730133 317.697205,438.999664 
	C332.053925,438.061066 345.920410,434.801636 359.564392,430.311493 
	C362.120667,429.470215 365.605194,429.085358 367.888275,430.149139 
	C387.629425,439.347260 407.193359,448.925781 426.810822,458.389496 
	C428.667908,459.285339 430.530060,460.170685 433.005402,461.355530 
	C433.005402,459.106323 433.005371,457.498444 433.005371,455.890594 
	C433.005371,435.404175 432.977753,414.917664 433.056366,394.431519 
	C433.062866,392.738037 433.229767,390.488892 434.271332,389.444977 
	C441.562958,382.136932 449.342133,375.308167 456.518097,367.893219 
	C473.013153,350.848724 485.401337,331.003815 494.903473,309.366577 
	C502.951477,291.040466 508.936676,272.082733 511.084167,252.055527 
	C511.164062,251.310440 512.336609,250.682510 513.000000,250.000000 
	C513.000000,337.614166 513.000000,425.228363 513.000000,513.000000 
	C357.312469,513.000000 201.624893,513.000000 45.146935,512.720947 
	C52.377140,508.366943 60.464542,504.416473 68.389542,500.163391 
	C72.222511,498.106323 75.759766,497.657227 79.899994,499.310455 
	C82.699570,500.428345 85.901321,500.539001 89.132530,501.458069 
	C98.052841,502.210907 106.760185,502.753754 115.475594,502.967010 
	C129.359436,503.306732 142.520905,499.784973 154.905975,493.933838 
	C184.087097,480.147491 204.369736,458.245026 214.077774,427.100250 
z"/>
<path fill="#000000" opacity="1.000000" stroke="none" 
	d="
M262.531342,1.000000 
	C262.356750,1.664064 261.774170,2.834141 261.061554,2.919565 
	C226.503235,7.062180 195.120850,19.850567 166.686111,39.367302 
	C153.904694,48.140064 141.860245,58.475353 131.167099,69.706596 
	C103.368645,98.903900 85.115578,133.640976 76.214912,172.984161 
	C73.777245,183.759262 73.114891,194.967072 72.078506,206.017654 
	C71.338951,213.903214 70.650749,221.900284 71.138306,229.773361 
	C72.386780,249.933472 75.577766,269.816376 81.557358,289.528625 
	C80.467918,289.992798 79.746101,289.830780 79.145638,290.031555 
	C64.822884,294.822113 51.144749,301.084106 39.675518,310.992401 
	C20.692741,327.391724 7.579345,347.531738 2.909649,372.609344 
	C2.804887,373.171936 1.659810,373.540802 1.000003,374.000000 
	C1.000000,249.752380 1.000000,125.504745 1.000000,1.000000 
	C88.020729,1.000000 175.041702,1.000000 262.531342,1.000000 
z"/>
<path fill="#FFD88F" opacity="1.000000" stroke="none" 
	d="
M1.000003,374.468658 
	C1.659810,373.540802 2.804887,373.171936 2.909649,372.609344 
	C7.579345,347.531738 20.692741,327.391724 39.675518,310.992401 
	C51.144749,301.084106 64.822884,294.822113 79.145638,290.031555 
	C79.746101,289.830780 80.467918,289.992798 81.541306,289.921234 
	C84.663719,289.518402 87.378006,289.180084 90.914230,288.903625 
	C117.528069,295.090637 139.106506,307.919006 155.141769,329.300110 
	C173.153900,353.317139 180.212708,380.281311 176.062042,410.059875 
	C171.763168,440.902008 156.278717,465.011597 131.266846,483.104706 
	C118.577469,492.283905 104.352959,498.195923 88.923180,501.100189 
	C85.901321,500.539001 82.699570,500.428345 79.899994,499.310455 
	C75.759766,497.657227 72.222511,498.106323 68.389542,500.163391 
	C60.464542,504.416473 52.377140,508.366943 44.678276,512.720947 
	C43.611111,513.000000 42.222221,513.000000 40.416603,512.531372 
	C39.999905,503.735260 39.923473,495.406830 40.028255,487.080750 
	C40.092564,481.970947 39.578053,478.106628 34.932728,473.947266 
	C18.342299,459.092468 7.954205,440.204102 2.980560,418.418915 
	C2.742974,417.378265 2.145142,416.419891 1.715065,415.423187 
	C1.476706,415.615448 1.238349,415.807709 0.999996,416.000000 
	C1.000000,402.312439 1.000000,388.624878 1.000003,374.468658 
z"/>
<path fill="#FA8D46" opacity="1.000000" stroke="none" 
	d="
M513.000000,249.531342 
	C512.336609,250.682510 511.164062,251.310440 511.084167,252.055527 
	C508.936676,272.082733 502.951477,291.040466 494.903473,309.366577 
	C485.401337,331.003815 473.013153,350.848724 456.518097,367.893219 
	C449.342133,375.308167 441.562958,382.136932 434.271332,389.444977 
	C433.229767,390.488892 433.062866,392.738037 433.056366,394.431519 
	C432.977753,414.917664 433.005371,435.404175 433.005371,455.890594 
	C433.005371,457.498444 433.005402,459.106323 433.005402,461.355530 
	C430.530060,460.170685 428.667908,459.285339 426.810822,458.389496 
	C407.193359,448.925781 387.629425,439.347260 367.888275,430.149139 
	C365.605194,429.085358 362.120667,429.470215 359.564392,430.311493 
	C345.920410,434.801636 332.053925,438.061066 317.697205,438.999664 
	C306.524445,439.730133 295.349365,440.470764 284.164124,440.938110 
	C280.762115,441.080292 277.322723,440.328522 273.456329,439.910217 
	C282.577271,437.905823 292.211060,436.264893 301.694916,433.996857 
	C334.783142,426.083862 364.090057,410.757751 390.447479,389.251953 
	C417.527863,367.156311 438.041718,340.110535 452.559204,308.570862 
	C461.625305,288.874481 467.907471,268.164734 469.986267,246.431656 
	C470.948975,236.366943 472.150543,226.222458 471.838287,216.157730 
	C470.918060,186.497208 464.722992,157.954514 452.453918,130.754578 
	C439.668152,102.409195 421.545624,78.009560 398.609009,57.247738 
	C378.320709,38.883083 355.297333,24.496660 329.427734,15.530293 
	C314.275299,10.278488 298.375031,7.170063 282.779816,3.221388 
	C279.442169,2.376307 275.968964,2.066628 272.279114,1.255149 
	C288.354218,1.000000 304.708466,1.000000 321.263733,1.374385 
	C322.309906,2.162341 323.115906,2.795397 324.006500,2.954418 
	C330.563751,4.125247 337.222412,4.843812 343.691162,6.373072 
	C364.782684,11.359269 384.701935,19.378630 403.532532,30.137726 
	C427.062256,43.581707 447.051514,61.254295 464.293823,81.950485 
	C477.988861,98.388809 488.739532,116.794502 496.874023,136.609039 
	C503.788208,153.451080 508.875153,170.837234 511.084106,188.989304 
	C511.173798,189.726349 512.336975,190.332733 513.000000,191.000000 
	C513.000000,210.354233 513.000000,229.708450 513.000000,249.531342 
z"/>
<path fill="#000000" opacity="1.000000" stroke="none" 
	d="
M513.000000,190.531342 
	C512.336975,190.332733 511.173798,189.726349 511.084106,188.989304 
	C508.875153,170.837234 503.788208,153.451080 496.874023,136.609039 
	C488.739532,116.794502 477.988861,98.388809 464.293823,81.950485 
	C447.051514,61.254295 427.062256,43.581707 403.532532,30.137726 
	C384.701935,19.378630 364.782684,11.359269 343.691162,6.373072 
	C337.222412,4.843812 330.563751,4.125247 324.006500,2.954418 
	C323.115906,2.795397 322.309906,2.162341 321.732361,1.374385 
	C385.593475,1.000000 449.186981,1.000000 513.000000,1.000000 
	C513.000000,64.020721 513.000000,127.041702 513.000000,190.531342 
z"/>
<path fill="#000000" opacity="1.000000" stroke="none" 
	d="
M0.999996,416.468658 
	C1.238349,415.807709 1.476706,415.615448 1.715065,415.423187 
	C2.145142,416.419891 2.742974,417.378265 2.980560,418.418915 
	C7.954205,440.204102 18.342299,459.092468 34.932728,473.947266 
	C39.578053,478.106628 40.092564,481.970947 40.028255,487.080750 
	C39.923473,495.406830 39.999905,503.735260 39.999935,512.531372 
	C27.041956,513.000000 14.083913,513.000000 1.000000,513.000000 
	C1.000000,480.979218 1.000000,448.958252 0.999996,416.468658 
z"/>
<path fill="#FFC964" opacity="1.000000" stroke="none" 
	d="
M89.132530,501.458069 
	C104.352959,498.195923 118.577469,492.283905 131.266846,483.104706 
	C156.278717,465.011597 171.763168,440.902008 176.062042,410.059875 
	C180.212708,380.281311 173.153900,353.317139 155.141769,329.300110 
	C139.106506,307.919006 117.528069,295.090637 91.338760,288.896973 
	C98.584282,287.895386 106.252701,286.030853 113.864410,286.239105 
	C126.500847,286.584808 139.002213,289.019135 150.668747,294.121979 
	C186.907623,309.972534 209.396896,337.061340 217.112152,376.144226 
	C220.473572,393.172119 218.865631,409.815582 214.110046,426.709717 
	C204.369736,458.245026 184.087097,480.147491 154.905975,493.933838 
	C142.520905,499.784973 129.359436,503.306732 115.475594,502.967010 
	C106.760185,502.753754 98.052841,502.210907 89.132530,501.458069 
z"/>
<path fill="#FFF6E7" opacity="1.000000" stroke="none" 
	d="
M160.535553,234.210114 
	C157.081314,221.231125 160.122665,210.345215 169.819595,201.710556 
	C178.595734,193.895798 188.943375,192.013092 200.108688,195.581421 
	C214.219788,200.091202 222.568344,213.655670 221.018112,229.152191 
	C219.694122,242.387222 207.969009,254.226044 194.536896,255.890228 
	C179.354324,257.771301 166.157837,249.468231 160.535553,234.210114 
z"/>
<path fill="#FFF6E7" opacity="1.000000" stroke="none" 
	d="
M269.723206,203.736023 
	C280.493530,193.462234 293.994507,191.124878 306.270721,197.193588 
	C318.165283,203.073624 324.500824,215.288010 323.052216,229.546722 
	C321.816193,241.713242 312.143097,252.159378 299.155884,255.352844 
	C286.634857,258.431671 273.024689,252.726624 265.932861,241.426605 
	C258.472321,229.539108 259.808685,215.408737 269.723206,203.736023 
z"/>
<path fill="#FFF6E7" opacity="1.000000" stroke="none" 
	d="
M369.852722,244.083374 
	C359.723572,229.024841 361.918335,211.292801 374.957977,200.814056 
	C387.472961,190.756927 405.582428,191.848419 416.738892,203.332306 
	C428.570404,215.511032 428.438843,234.919891 416.442902,247.006592 
	C404.505219,259.034576 385.002319,259.167755 372.794556,247.291306 
	C371.841431,246.364044 370.974243,245.348434 369.852722,244.083374 
z"/>
</svg>